# xmcd
#
# Track frame offsets: 
#        182
#        26307
#        49575
#        73410
#        94960
#        128500
#        159472
#
# Disc length: 2353 seconds
#
# Revision: 3
# Processed by: cddbd v1.5.2PL0 Copyright (c) Steve Scherf et al.
# Submitted via: ExactAudioCopyFreeDBPlugin 1.0
#
DISCID=55092f07
DTITLE=Curtis Mayfield - Roots
DYEAR=1971
DGENRE=Soul
TTITLE0=Get Down
TTITLE1=Keep on Keeping Up
TTITLE2=Underground
TTITLE3=We Got to Have Peace
TTITLE4=Beautiful Brother of Mine
TTITLE5=Now You're Gone
TTITLE6=Love to Keep You in My Mind
EXTD=
EXTT0=
EXTT1=
EXTT2=
EXTT3=
EXTT4=
EXTT5=
EXTT6=
PLAYORDER=
